<svg xmlns="http://www.w3.org/2000/svg" viewBox="0 0 64 64"><path d="M6 60V28Q6 8 32 3Q58 8 58 28V60Z" fill="#0f6b63"/><path d="M12 60V29Q12 13 32 9Q52 13 52 29V60Z" fill="none" stroke="#d9a93a" stroke-width="1.6"/><path d="M40 20a12 12 0 1 0 0 20a9.5 9.5 0 1 1 0-20z" fill="#d9a93a" transform="translate(-6 -2)"/><path d="M42 24l1.6 3.6 3.9.4-2.9 2.6.8 3.8-3.4-1.9-3.4 1.9.8-3.8-2.9-2.6 3.9-.4z" fill="#d9a93a" transform="translate(-1 -1)"/><path d="M14 60V50Q32 42 50 50V60Z" fill="#ffffff" opacity=".9"/><path d="M32 46l-4-3v10h8V43z" fill="#0f6b63" opacity=".0"/><path d="M18 56h28" stroke="#0f6b63" stroke-width="2"/></svg>